<mxfile host="app.diagrams.net" modified="2024-08-16T10:06:24.364Z" agent="Mozilla/5.0 (Macintosh; Intel Mac OS X 10_15_7) AppleWebKit/537.36 (KHTML, like Gecko) Chrome/126.0.0.0 Safari/537.36" etag="UNE-FxlFotWZNV0sbzPn" version="24.6.5" type="device">
  <diagram name="Page-1" id="vQ2cZRdq6jM_YYX8AMnz">
    <mxGraphModel dx="984" dy="571" grid="1" gridSize="10" guides="1" tooltips="1" connect="1" arrows="1" fold="1" page="1" pageScale="1" pageWidth="850" pageHeight="1100" math="0" shadow="0">
      <root>
        <mxCell id="0" />
        <mxCell id="1" parent="0" />
        <mxCell id="17OV0TyDoGlEdXg8jNEe-4" style="edgeStyle=orthogonalEdgeStyle;rounded=0;orthogonalLoop=1;jettySize=auto;html=1;exitX=1;exitY=0.5;exitDx=0;exitDy=0;entryX=0;entryY=0.5;entryDx=0;entryDy=0;" edge="1" parent="1" source="17OV0TyDoGlEdXg8jNEe-1" target="17OV0TyDoGlEdXg8jNEe-2">
          <mxGeometry relative="1" as="geometry" />
        </mxCell>
        <mxCell id="17OV0TyDoGlEdXg8jNEe-5" value="Action: Decide(Accept)" style="edgeLabel;html=1;align=center;verticalAlign=middle;resizable=0;points=[];" vertex="1" connectable="0" parent="17OV0TyDoGlEdXg8jNEe-4">
          <mxGeometry x="0.05" relative="1" as="geometry">
            <mxPoint x="-9" as="offset" />
          </mxGeometry>
        </mxCell>
        <mxCell id="17OV0TyDoGlEdXg8jNEe-9" style="edgeStyle=orthogonalEdgeStyle;rounded=0;orthogonalLoop=1;jettySize=auto;html=1;exitX=0.5;exitY=0;exitDx=0;exitDy=0;entryX=0.5;entryY=0;entryDx=0;entryDy=0;" edge="1" parent="1" source="17OV0TyDoGlEdXg8jNEe-1" target="17OV0TyDoGlEdXg8jNEe-3">
          <mxGeometry relative="1" as="geometry" />
        </mxCell>
        <mxCell id="17OV0TyDoGlEdXg8jNEe-11" value="Action: Retract" style="edgeLabel;html=1;align=center;verticalAlign=middle;resizable=0;points=[];" vertex="1" connectable="0" parent="17OV0TyDoGlEdXg8jNEe-9">
          <mxGeometry x="-0.5364" relative="1" as="geometry">
            <mxPoint x="14" y="-1" as="offset" />
          </mxGeometry>
        </mxCell>
        <mxCell id="17OV0TyDoGlEdXg8jNEe-1" value="Published" style="ellipse;whiteSpace=wrap;html=1;aspect=fixed;" vertex="1" parent="1">
          <mxGeometry x="130" y="160" width="80" height="80" as="geometry" />
        </mxCell>
        <mxCell id="17OV0TyDoGlEdXg8jNEe-6" style="edgeStyle=orthogonalEdgeStyle;rounded=0;orthogonalLoop=1;jettySize=auto;html=1;exitX=1;exitY=0.5;exitDx=0;exitDy=0;entryX=0;entryY=0.5;entryDx=0;entryDy=0;" edge="1" parent="1" source="17OV0TyDoGlEdXg8jNEe-2" target="17OV0TyDoGlEdXg8jNEe-3">
          <mxGeometry relative="1" as="geometry" />
        </mxCell>
        <mxCell id="17OV0TyDoGlEdXg8jNEe-8" value="Action: Retract" style="edgeLabel;html=1;align=center;verticalAlign=middle;resizable=0;points=[];" vertex="1" connectable="0" parent="17OV0TyDoGlEdXg8jNEe-6">
          <mxGeometry x="0.0667" y="1" relative="1" as="geometry">
            <mxPoint x="-4" as="offset" />
          </mxGeometry>
        </mxCell>
        <mxCell id="17OV0TyDoGlEdXg8jNEe-2" value="Completed" style="ellipse;whiteSpace=wrap;html=1;aspect=fixed;" vertex="1" parent="1">
          <mxGeometry x="360" y="160" width="80" height="80" as="geometry" />
        </mxCell>
        <mxCell id="17OV0TyDoGlEdXg8jNEe-3" value="Retracted" style="ellipse;whiteSpace=wrap;html=1;aspect=fixed;" vertex="1" parent="1">
          <mxGeometry x="560" y="160" width="80" height="80" as="geometry" />
        </mxCell>
        <mxCell id="17OV0TyDoGlEdXg8jNEe-12" style="edgeStyle=orthogonalEdgeStyle;rounded=0;orthogonalLoop=1;jettySize=auto;html=1;exitX=0.5;exitY=1;exitDx=0;exitDy=0;entryX=0;entryY=0.5;entryDx=0;entryDy=0;" edge="1" parent="1" source="17OV0TyDoGlEdXg8jNEe-1" target="17OV0TyDoGlEdXg8jNEe-1">
          <mxGeometry relative="1" as="geometry">
            <Array as="points">
              <mxPoint x="170" y="280" />
              <mxPoint x="40" y="280" />
              <mxPoint x="40" y="200" />
            </Array>
          </mxGeometry>
        </mxCell>
        <mxCell id="17OV0TyDoGlEdXg8jNEe-13" value="Action: Submit, Decide(Reject)" style="edgeLabel;html=1;align=center;verticalAlign=middle;resizable=0;points=[];" vertex="1" connectable="0" parent="17OV0TyDoGlEdXg8jNEe-12">
          <mxGeometry x="-0.3062" relative="1" as="geometry">
            <mxPoint x="8" y="-1" as="offset" />
          </mxGeometry>
        </mxCell>
        <mxCell id="17OV0TyDoGlEdXg8jNEe-14" value="" style="shape=curlyBracket;whiteSpace=wrap;html=1;rounded=1;labelPosition=left;verticalLabelPosition=middle;align=right;verticalAlign=middle;rotation=-90;" vertex="1" parent="1">
          <mxGeometry x="490" y="116" width="20" height="290" as="geometry" />
        </mxCell>
        <mxCell id="17OV0TyDoGlEdXg8jNEe-15" value="Any inputs except state readings will be ignored at these states" style="text;html=1;align=center;verticalAlign=middle;resizable=0;points=[];autosize=1;strokeColor=none;fillColor=none;" vertex="1" parent="1">
          <mxGeometry x="318" y="271" width="360" height="30" as="geometry" />
        </mxCell>
        <mxCell id="17OV0TyDoGlEdXg8jNEe-17" value="State Transition Tests" style="rounded=1;whiteSpace=wrap;html=1;fillColor=#fff2cc;strokeColor=#d6b656;" vertex="1" parent="1">
          <mxGeometry x="40" y="360" width="200" height="40" as="geometry" />
        </mxCell>
        <mxCell id="17OV0TyDoGlEdXg8jNEe-18" value="&lt;ol&gt;&lt;li&gt;The same quest cannot get published twice.&lt;/li&gt;&lt;li&gt;Participants cannot submit to a quest twice.&lt;/li&gt;&lt;li&gt;The quest publisher cannot submit to its quest.&lt;/li&gt;&lt;li&gt;Only the quest publisher can grade submissions.&lt;/li&gt;&lt;li&gt;The same submission can only be graded once.&lt;/li&gt;&lt;li&gt;Submit, decide, and retract cannot be called in either completed or retracted states.&lt;/li&gt;&lt;li&gt;No actions are allowed in both completed and retracted states.&lt;/li&gt;&lt;/ol&gt;" style="text;html=1;align=left;verticalAlign=middle;resizable=0;points=[];autosize=1;strokeColor=none;fillColor=none;" vertex="1" parent="1">
          <mxGeometry x="412" y="440" width="510" height="140" as="geometry" />
        </mxCell>
        <mxCell id="17OV0TyDoGlEdXg8jNEe-19" value="Success Scenarios" style="text;html=1;align=center;verticalAlign=middle;resizable=0;points=[];autosize=1;strokeColor=none;fillColor=none;fontColor=#CC00CC;" vertex="1" parent="1">
          <mxGeometry x="27" y="418" width="130" height="30" as="geometry" />
        </mxCell>
        <mxCell id="17OV0TyDoGlEdXg8jNEe-20" value="&lt;ol style=&quot;&quot;&gt;&lt;li&gt;A new quest can be published.&lt;/li&gt;&lt;li&gt;Participants can submit to a quest.&lt;/li&gt;&lt;li&gt;The quest publisher can grade submissions.&lt;/li&gt;&lt;li&gt;Submit, decide, and retract can be called in the published state.&lt;/li&gt;&lt;/ol&gt;" style="text;html=1;align=left;verticalAlign=middle;resizable=0;points=[];autosize=1;strokeColor=none;fillColor=none;" vertex="1" parent="1">
          <mxGeometry x="12" y="440" width="400" height="100" as="geometry" />
        </mxCell>
        <mxCell id="17OV0TyDoGlEdXg8jNEe-21" value="Failure Scenarios" style="text;html=1;align=center;verticalAlign=middle;resizable=0;points=[];autosize=1;strokeColor=none;fillColor=none;fontColor=#FF0000;" vertex="1" parent="1">
          <mxGeometry x="428" y="418" width="120" height="30" as="geometry" />
        </mxCell>
        <mxCell id="17OV0TyDoGlEdXg8jNEe-22" value="State Transition Diagram" style="rounded=1;whiteSpace=wrap;html=1;fillColor=#fff2cc;strokeColor=#d6b656;" vertex="1" parent="1">
          <mxGeometry x="40" y="40" width="200" height="40" as="geometry" />
        </mxCell>
      </root>
    </mxGraphModel>
  </diagram>
</mxfile>
